<?xml version="1.0" encoding="utf-8"?>
<!-- Generator: Adobe Illustrator 23.0.1, SVG Export Plug-In . SVG Version: 6.00 Build 0)  -->
<svg version="1.1" id="Layer_1" xmlns="http://www.w3.org/2000/svg" xmlns:xlink="http://www.w3.org/1999/xlink" x="0px" y="0px"
	 viewBox="0 0 2800 3200" style="enable-background:new 0 0 2800 3200;" xml:space="preserve">
<g>
	<path d="M494.2,1344.5c-0.1,0.1-0.1,0.3-0.2,0.4C494.1,1344.8,494.2,1344.7,494.2,1344.5z"/>
	<path d="M2434.8,2271c-44.1-53.7-104.6-127.3-105.8-140.5c1.4-19.3-3.9-26.7-11.8-38c-4.7-6.6-10.5-14.8-17.4-28.7
		c-12.4-24.8-28.9-28.8-46.4-33.2c-12.9-3.2-27.5-6.8-45.2-19.1c-23.3-16.2-23.9-21-24.7-27.8c-0.7-6-1.8-14.2-11.3-27.2
		c-5.4-7.4-11.8-15.1-18.6-23.2c-19.2-23.2-41.1-49.5-46.3-75.9c-7.2-35.8-134.9-243.9-164.9-292.4c0,0,0,0,0,0
		c29.9-23.6,68.6-58.1,94.4-95.4c16.8-24.2,38.1-58.5,58.6-91.7c7.2-11.8,14.4-23.4,21.3-34.5c3.7-6,7.3-11.6,10.9-17.1l1.3-2v-0.1
		c7.6-11.9,25.9-40.2,33.1-46c18.6-15.1,17.5-32.5,16.7-44.1c-0.1-2.1-0.2-4.1-0.2-6c0-2.3,0.2-4.7,0.4-7.6
		c0.8-12.6,2.3-33.5-6.3-76.4c-6.9-34.9-25.5-53.9-40.4-69.2c-8.3-8.5-15.4-15.9-18.7-24.1c-6.4-15.6-22.4-32.4-36.4-47.1
		c-8.8-9.3-18.8-19.8-20.3-24.4c-3.3-9.7-35.6-38.1-68.7-64.5c-8-10-19.4-17.5-31.4-24.8c-16.4-19.4-47.1-51.3-47.1-51.3
		c-32.2-32.2-64.4-56.3-105.1-75c-33.9-14.2-62.9-21.4-65.2-21.4c-1.6-0.1-11.9-1.9-25.5-5c-10.5-2.5-14.8-1.6-21.2,0
		c-2.8,0.7-6.1,1.5-11.4,2.2c-10.1,1.2-15.3,2.9-19.6,4.3c-2.7,0.9-4.6,1.5-6.9,1.8c-3.6-0.2-16.2-8.1-27.2-17.1
		c-2.9-2.2-73.3-53.8-197.9-101.2c-124.4-47.4-318.3-37.8-348.8-34c-4.3,0.5-10.2,1-17.2,1.7c-44.9,4.3-90.3,9.3-108,21.1
		c-11.4,7.6-14.3,11.4-16.6,14.9c-0.6,1-1.1,1.7-6.7,4.5c-14.2,7.1-25.7,10.5-52.5,10.5c-22.4,0-37.8,9.9-55.5,21.4
		c-6.6,4.3-13.4,8.7-21.2,13c-27.9,15.5-40.2,25.4-57.3,39L743,722c-10.6,8.5-14.2,8.5-21.1,8.7c-3.9,0.1-8.8,0.2-15.4,1.5
		c-14,3-22.9,15.5-31.6,27.8c-4.8,6.8-9.8,13.9-15.5,18.8c-2.5,2.3-7.3,6.4-4.6,12.3c1,2,2.8,4.2,6.4,4.7
		c-3.7,9.1-18.1,33.9-71.7,99.8c-95.1,117-117,178.5-126.5,204.9c-1.7,4.8-3.5,9.9-4.1,10.8c-9.8,7.7-10.8,29.9-3.9,87.7
		c0.3,2.7-0.1,10.5-3.5,32.7l-0.1,0.8c-0.6,4.3-1.4,9-2.3,13.8l-0.1,1.4h8c-11,64-32.8,165.9-32,185.1c0.7,20.8,11.4,35.7,16,41.2
		c0,0,0,0,0,0l-1.4,1.1l-4.2-1.4c-0.1,0.2-0.3,1-1,1.9l-1,1.9c-1.9,3.3-5.2,7.6-10.4,12.1c-9.4,8.3-10.5,12.5-8.9,21.8
		c0.5,3,1,6.7,1,12.6c0,14.2-12.2,22.2-25.4,28.8c-13.9,7-19.9,13-18.6,30.5c0.2,3.5,0.6,6.5,1,9.3c0.8,7,1.4,11.7-0.7,20.3l-1-1
		l-5.3,8.9c-44.1,74.7-29,133.1-8.5,168.9c22.4,39.3,59.8,65.4,74.7,65.4h5.2c5.6-0.1,12.6-0.1,14.9,0.7c0.1,0.4,0.1,1-0.1,1.9
		c-1.6,11.1,3.7,21.7,11.1,36.3c3.7,7.4,7.9,15.7,12.2,25.8c10.1,24.2,28.5,32.1,43.3,38.5c5.1,2.2,9.9,4.3,13.7,6.8
		c18.9,12.2,58.2,14.1,82.7-1.9c12.6-8.3,42.1,7.2,63.6,18.5c5.7,3,11.1,5.9,16,8.2c1.1,19.5,3.7,59.9,7.2,71.5
		c4.7,15.5,8.5,17.9,8,33.4c-0.3,11.2-2.2,19.7-3.1,25.5c-3.2,6.4-6.9,13.9-10.7,23.3c-3.8,9-11.8,20.9-21.6,33.6l-1.9,1.2l1.3-0.4
		c-30.2,38.8-77.6,85.3-78.2,86l-2.4,2.3v3.4c0,3.7,2.6,10.9,7.5,20.7c4.5,9.1-2.3,63.8-19.4,114.1c-15.1,44.4-51,73.7-51.4,74
		l10.1,12.6c1.6-1.3,39.9-32.4,56.6-81.4c13.8-40.6,27.5-108.3,18.5-126.5c-2.7-5.3-4.1-8.9-4.9-10.9
		c13.5-13.4,64.1-64.6,89.1-102.1l28.3-8.7c0.9-0.2,1.9-0.6,3.2-0.9c1.1,0.3,2.2,0.7,3.2,1.2c0,0,0,0.1,0.1,0.1
		c4.3,7.7,6.1,14.5,8.3,22.6c1,3.9,2.2,8,3.6,12.3c0,0.5-0.2,1.9-0.4,2.9c-0.5,3.3-1.2,7.8,1.5,11.8c0.4,0.6,0.9,1.2,1.4,1.8
		c-0.2,1.2-0.3,2.5-0.5,3.7c-0.2,1.6,0.9,2.7,2.5,2.5c1-0.2,2.6-0.5,4.4-1.1c0,0,0,0,0.1,0c11.7,6,27.2-0.8,37.8-6c0,0,0.1,0,0.1,0
		c0.8,0.4,1.4,0.9,2.1,1.4c2.7,11,1.6,20.7-3.2,30.1c-3.1,6.1-6.7,10.1-9.3,13c-1.8,1.9-3.9,4.3-4.6,7.1c-2.4,1.9-4.7,3.4-6.6,4.4
		c-1.9,1-1,3.9,1,3.8c2.4-0.1,4.9-0.1,7.3-0.2c0,0,0,0,0,0c2.1,2.7,5.4,3.5,11.8,3.5c2.8,0,6.3-0.1,10.5-0.3l13.2-0.5
		c13.7-0.6,27.9-1,41.9-1.9c33.1-2.3,53.4-10.1,77.5-29.9c6.8-5.5,13.1-12.1,19.3-18.5c9.3-9.6,18.8-19.6,29.5-25.5
		c0.6-0.3,1.3-0.7,1.9-1c1.2-0.7,2.4-1.3,3.7-1.8c11.1-4.7,23.9-4.1,37.5-3.5c10.5,0.5,21.3,1,32-1c28.7-5.4,53.7-20.6,74.5-34.8
		c10.9-7.5,21.5-15.3,31.8-22.9c29.1-21.3,56.6-41.5,89.7-55.5c16.3-6.9,32.8-13.6,49.2-20.3c40.7-16.5,82.7-33.6,123-54.3
		c20.9-10.8,41.5-23.3,61.6-35.3c26.3-15.9,53.7-32.4,81.6-44.9c8-3.5,15.5-5.9,22.7-8.1c6.1-1.9,12.1-3.9,18.1-6.4
		c3.4-0.3,6.9-0.5,10.4-0.5c0.6,0,1.4-0.3,1.8-1c1.1-2.4,2.3-4.7,3.7-6.9c0,0,0,0,0,0l0.1-0.1c2.6-1.9,5.2-3.9,7.8-6.1
		c11.9-10.3,23.2-18,36.5-25c19.3-10.1,36.3-23.6,52.6-36.5c17.6-14.1,34.4-27.4,53.6-36.6c6.3-3.1,12.6-5.4,19.2-7.8
		c9.3-3.5,18.9-7.2,28.5-12.8c7.6-4.6,13-10.5,17.9-15.8c1.3-1.5,2.6-2.9,3.9-4.3c0,0,0.1-0.1,0.1-0.1c7.9-5.2,16-9.5,23.4-10.5
		c0.1,0,0.2,0,0.3,0c0.5,0,1,0.2,1.5,0.2c0.9,0.2,2.7,1.1,4,1.9c2.7,1.5,5.7,3.2,9.2,3.7c1.2,0.2,1.7,0.3,1.8,0.3l1,0.6l0.1,0
		c1.6,2,3.1,4.4,4.5,7.4c0.8,1.9,3.9,0.9,3.8-1c-0.1-2.1-0.1-4.5-0.1-7.1l1.7-2.7c0.3-0.6,0.6-1.1,1-1.7c4.4-8.1,2.1-22.9-1.4-41.2
		c-0.7-3.8-1.3-7.1-1.6-9.3c-0.2-2.3-0.5-5.2-0.6-8.3c-0.7-10.5-1.4-22.4-5.9-29.9c-0.3-0.6-1-1.3-1.9-2.2c0,0-0.1-0.1-0.1-0.1
		c-3.1-8.3-7.3-15.2-13-19.2c-9.7-6.9-17.8-2.5-25.7-2c0,0,0,0,0.1,0c4.3-3.2,8.7-6.5,13-9.8c13.8-10.5,26.8-20.3,35.6-26l0.6-0.5
		c3.9-2.5,9.3-6.1,15.9-10.9c5.3-3.8,11.1-8,17.1-12.7c48,77.7,156.2,256.9,161.9,285.6c6.1,30.3,29.3,58.3,49.7,83
		c6.6,8,12.9,15.5,18,22.5c7,9.6,7.6,14.5,8.3,19.7c1.4,11.6,4.3,20.1,31.5,39c20.1,14,37,18.2,50.6,21.5
		c16.7,4.1,26.8,6.6,35.9,24.7c7.5,15,14,24.1,18.7,30.8c7.4,10.5,9.9,14,8.9,27.5c-1.1,15.6,32.5,58.3,109.4,151.9
		c38.9,47.3,87.3,106.3,89.4,116.7h16.1C2527.9,2385.5,2500.9,2351.5,2434.8,2271z M463.7,1845.4c-5.6-6.4-14.8-6.4-27.5-6.3h-4.9
		c-5.6-0.4-35.1-17.2-56.3-50c0,0,0,0,0,0c0,0,0,0,0,0c1.2-1.1,2.3-2.1,3.1-3.1c-0.9,1-1.9,2-3.1,3.1c21.3,32.8,50.7,49.6,56.3,50
		h4.9C448.9,1839,458,1839,463.7,1845.4c1.6,1.8,2.7,3.9,3.2,6.4C466.3,1849.4,465.2,1847.2,463.7,1845.4z M378.6,1785.5
		c2.4-2.8,3.8-5.6,6.1-10.8c1-2.2,1-5.5,1.3-8.3c0.1-0.9,0.2-1.8,0.5-2.6c3.2-11.5,1.6-14.6,4.3-13.9c-2.6-0.6-1.1,2.4-4.3,13.9
		c-0.2,0.8-0.4,1.7-0.5,2.6c-0.3,2.8-0.3,6.1-1.3,8.3C382.4,1779.9,381,1782.7,378.6,1785.5z M427.3,1768.6
		C427.3,1768.6,427.3,1768.6,427.3,1768.6c3.4,3.4-14-1.4-18.3-3C413.3,1767.2,430.7,1772,427.3,1768.6z M427.3,1768.6
		c0.6,0.6,1.6,0.8,2.4,0.3c0.2-0.2,0.5-0.3,0.7-0.4c-0.2,0.1-0.5,0.3-0.7,0.4C428.9,1769.4,427.9,1769.2,427.3,1768.6z
		 M451.8,1773.7c1.5-0.2,3.1-0.9,4.7-2.2c3.2-2.6,5.2-6.7,6.3-11.3c0.2-0.8,0.4-1.5,0.5-2.3c-0.2,0.8-0.3,1.6-0.5,2.3
		c-1.2,4.6-3.1,8.7-6.3,11.3C454.9,1772.8,453.4,1773.5,451.8,1773.7z M605.3,1949.8c-18.2,11.9-51,10.9-65,1.9
		c-5-3.2-10.4-5.6-16.1-8c-14-6-27.2-11.7-34.9-29.9c-4.4-10.5-8.8-19.2-12.6-26.7c-4.6-9-8.2-16.1-9.3-21.7
		c1.1,5.6,4.7,12.7,9.3,21.7c3.8,7.6,8.1,16.2,12.6,26.7c7.6,18.3,20.8,24,34.9,29.9c5.7,2.5,11.1,4.8,16.1,8
		C554.3,1960.7,587.1,1961.7,605.3,1949.8c20.6-13.5,53.5,3.8,79.9,17.8c7.4,3.9,14.4,7.6,20,10c4.4,1.9,8.3,4.1,11.7,6.5l0,0
		c-3.5-2.4-7.3-4.6-11.7-6.5c-5.6-2.3-12.6-6-20-10C658.8,1953.7,625.9,1936.4,605.3,1949.8z M495.5,1715.3c1.7-0.4,3.4-0.9,5.2-1.5
		c9.8-3.6,18.3-15.1,28.4-18.8c11.7-4.2,24.4-2.8,36.3-5.6c-11.9,2.8-24.6,1.5-36.3,5.6c-10.1,3.7-18.6,15.2-28.4,18.8
		C498.9,1714.4,497.2,1714.9,495.5,1715.3z M570.7,1687.4c0.7-0.6,1.2-1.2,1.8-1.9C572,1686.2,571.4,1686.8,570.7,1687.4z
		 M589.7,1676.6c1.9-0.8,3.3-1.4,3.6-1.2C593,1675.2,591.6,1675.8,589.7,1676.6z M611.3,1800.5c7.5-3.1,8-11.6,9.8-18.1
		c3.5-13-6.4-41.1,13.4-21.9c12.6,12.2,5.8,9,5,23.7c-0.8,14.6,3.1,21.1,16.6,25c1.7,0.5,37.8-2.3,33.7-6.8c0.5,0.6,1.7,0.8,2.4,0.3
		c15.1-10.5,19.1,17.8,22.8,28.7c1.3,3.6,7.4,15.1,6.4,18.6c-4.3,15.3-11.1,3.6-15.5-0.7c-7.2-7.2-13.4-17.8-26.1-13.8
		c-2.4,0.8-6.2,5.1-7.8,5.5c-3.8,0.9-1,4.4,1.8,7.2c-0.5,0.4-0.7,0.9-1,1.5c-3.4-1.9-8.9-5.1-17.4-10c-1.5-0.8-1.8-4.7-3.3-5.5
		c-5-2.5-31.2-8.2-32.4-10.9c-0.3-0.7-1.5-1.2-2.3-1c-6.4,2.4-16.5,9-20.9,12.5c-5.1,4-7.6,13.4-14.3,11.1
		c-3.4-1.2-4.3-25.1-4.3-27.5c-0.1-1.7,2.2-40.6,10.3-32.6c0.1,0.1,0.2,0.2,0.2,0.2C595,1793.6,599.6,1805.3,611.3,1800.5z
		 M607.8,1633.8c2.1-7.3,4.3-15.3,6.3-23.5c0,0,0,0,0,0C612.1,1618.6,609.8,1626.5,607.8,1633.8z M615.5,1603.8
		c0.4-1.9,0.8-3.8,1.3-5.6c0,0,0,0,0,0C616.4,1600.1,615.9,1602,615.5,1603.8z M653,1712.1c0.6,0.4,1.5,0.4,2.1,0
		c1.7-1.1,5,0.4,8.9,3.2c-3.9-2.8-7.1-4.3-8.9-3.2C654.4,1712.5,653.6,1712.5,653,1712.1L653,1712.1z M739.1,2009.1
		c0.4,0.8,0.8,1.5,1.1,2.2l0.7,1.7c0.3,0.7,0.6,1.4,0.8,1.9c2.3,1.4,4.6,3,7,4.7c-2.4-1.7-4.7-3.3-7-4.7c0,0,0,0,0,0
		c-0.2-0.5-0.5-1.1-0.8-1.8l-0.7-1.7C739.9,2010.6,739.5,2009.9,739.1,2009.1L739.1,2009.1z M731.2,1757.1
		c-3.4-2.7-7.2-4.8-11.1-6.6C724,1752.3,727.8,1754.4,731.2,1757.1c2.6,2.1,4.9,4.8,7.1,7.5C736.1,1761.9,733.8,1759.2,731.2,1757.1
		z M1723.9,1668.3c-16.6-1.4-34.6-5.5-50.5-14.6c-0.1,0-0.1-0.1-0.1-0.1c13.6,2.7,25.1,2.9,39,9
		C1716.2,1664.3,1720.1,1666.4,1723.9,1668.3C1724,1668.3,1723.9,1668.3,1723.9,1668.3z M1858.3,1606.3c-2.5,1.9-5.1,3.9-7.6,5.8
		c-6.1,4.7-12.2,9.3-18.1,13.8c-11.5,8.5-24,17.5-30.1,20.3c-5.5,2.6-10.1,5.6-14.7,8.7c-1.6,1-3.3,2.2-5,3.2l0,0l-0.3,0.1l-0.7,0.4
		c-4,2.7-7.9,4.7-12.4,6.3c-4.4,1.6-8.9,2.6-13.9,3.1l-0.2,0l-1.1,0.2l0,0c-2.3-0.1-4.7-0.4-7.2-0.7c-21.3-3.1-39.4-11.8-59.7-18.1
		c-7-2.2-6.8-1.5-4.8-0.3c-3.9-1.9-10-4.6-18.8-8.5c-7.2-3.2-12.1-6.2-15.9-9.7c-7.4-9.9-13.1-22.3-16.5-37.6l-0.1-0.3
		c-0.4-2-0.8-4.1-1.2-6.2c-0.6-3.1-1-6.4-1.5-9.6c-1.2-8.5-2.2-17.7-3.1-27.4c6.2,29.8,16.8,66.8,39,80.2
		c24.2,14.7,71.8,11.3,99.1,6C1796.9,1629.4,1827.4,1618.9,1858.3,1606.3C1858.3,1606.3,1858.3,1606.3,1858.3,1606.3z
		 M1926.8,1556.8c-8.4,6.4-16.6,12.6-23.7,17.7c-6.4,4.5-11.6,8-15.3,10.5c0,0-0.1,0.1-0.2,0.1l-0.2,0.1
		c-16.2,7.2-32.3,14.4-48.5,21.5c-18.6,8.1-30.8,11.1-50,12.8c-4.4,0.4-9-0.4-13.4,0.3c-33,5.3-63.2,16.7-97.8,3.3
		c-42.2-16.5-49.5-92.2-53.4-132c-1.3-13.2-2-26.5-2.4-39.8c0.3-51.7,3.1-92.9,3.3-94.8l0.1-2.1c0.1-0.6,8.3-65.6,14.8-134l0-0.3
		c0.6-5.4,1.1-10.8,1.6-16.2c9.2-17,15.6-34.9,18.5-54.7c1.6-11.1,3.9-26.3,1-37.4c-0.3-1.4-0.7-2.6-1-3.8c-0.1-0.8-0.1-1.6-0.2-2.4
		c0.2,0.3,0.3,0.5,0.5,0.8c1,1.5,3,2,4.7,1.7c4,18.1,5.2,20.4,11.3,19.4c1.8,2.3,3.8,4.7,6.1,7c2.8,2.7,7.9,0,6.8-3.9
		c-8.7-28.8-9.5-59.1-12.4-88.5c0.1-3.4,0.3-6.8,0.5-10.4c0.1-0.1,0.2-0.2,0.2-0.3c0.4-0.7,0.8-1.4,1.2-2.2c0.8-1.4,0.7-3.7-0.6-4.8
		c-0.6-0.5-1-0.9-1.5-1.4c-0.7-0.6-1.4-1-2.3-1c-1.2-8-2.9-15.9-5.1-23.7c-1.3-4.6-4.1-10.1-6.2-16.2c-9.7-27.6-15.2-53.1-16.3-83
		c-0.2-2.8-2.5-4.3-5.2-3.9c-19.7,2.8-21.1-14.7-23.1-30.7c-0.5-3.6-4-5.1-6.9-2.9c-16.1,12.6-18.1,10.2-20.8-9.7
		c-0.5-3-4.9-3.8-6.8-1.8c-11,11.8-16.7-6.9-28.4-6.7c-10.9,0.2-14.4,18.5-18.8,11.8c-2-3.1-7.7-2.2-7.5,2c0.1,2,0.4,3.9,0.7,5.7
		l-28.4-5.7l34.1,22.4l11.2,15.6c0.7,1,1.6,2.3,2.8,3.9l0.2,0.2c8.1,11.3,24.4,32.8,41.9,49.7c13.4,12.8,19.7,41,25.7,68.3
		c3.6,16.4,7.1,31.9,12.1,44.4c2.6,6.5,5.6,33.1-3.9,138.4l-0.1,1c-0.5,5.8-1.1,11.6-1.7,17.5c-6.5,68.2-14.7,132.9-14.8,133.9
		c0,0-0.1,1.1-0.2,2.8c-1.1,16.4-3.1,55.4-3.3,98.6c-0.1,32.5,0.8,61.6,2.7,87.1c-0.5-0.6-0.9-1.3-1.4-1.9c-1.3-4.2-2.7-8.4-4-12.7
		c-0.4-1.3-1.9-1.8-3-1.2c-3.2,1.5-6.1,2.9-8.8,4.3c-9.4-1.1-18.3,4.4-26.5,10.2l-2.4,1.7l-0.7,2.9c-0.2,0.5-0.2,1-0.3,1.5
		c-2.2,2.1-4.5,4.3-6.7,6.4c-1.6,1.5,0.5,4.5,2.4,3.1c1.1-0.8,2.1-1.5,3.2-2.3c0,0,0,0,0,0c-0.2,2.7-0.2,5.2,0,7.7c0,0,0,0.1,0,0.1
		c-1,2.4-1.9,4.8-2.8,7.7c-0.2,0.8,0.2,1.9,0.9,2.3c5.7,9.9,11.4,19.8,17.1,29.6c-0.1,0.9,0.7,1.7,1.5,1.9c2.4,0.8,4.6,1.7,6.6,2.6
		c7.2,8.6,13.7,16.7,17.8,26c2.9,6.7,5.6,14.6,8.3,22.9c7.6,22.7,16.5,49.1,34.7,62.8c0,1.2-0.2,2.4-0.7,3.5c-0.6,1.3,0,3.1,1.7,3.1
		c12.2-0.6,20.1,2.4,25.6,7.7c0.2,0.9,0.3,1.7,0.5,2.6c2.4,13.2,5.3,29,15.4,37.2c0.1,0.5,0.3,1.1,0.4,1.6c0.4,1.5,2.1,1.8,3.2,1
		c0,0,0,0,0,0c0.2,0.1,0.2,0.1,0.4,0.2c1.1,1.2,2.2,2.3,3.2,3.4c-1.5,1.6,0.5,4.5,2.5,3.2c1.1-0.7,2.5-1.8,4-2.9v6.7
		c0.3,0,0.6,0,1-0.1l5.1-0.2l0.6-2c1.8-1,3.9-2.5,6.5-4.5c0.2-0.1,0.3-0.2,0.5-0.3c-27.8,40.9-63.8,74.1-107.1,98.6
		c-32.3-22.9-63.9,12.9-85.1,36.8c-6.7,7.6-13,14.7-18,18.8c-19.7,15.7-42.4,27.1-73.6,37.3c-5.2,1.6-10.3,3.2-15.5,4.7
		c-14.7,4.3-29.8,8.9-44,16.3c-7.8,4.2-14.3,9.7-20.7,15c-1.9,1.6-3.8,3.2-5.7,4.7c-11.2,5.5-22.2,8.9-34.7,10.5
		c-3.7,0-7.5-0.2-11.3-0.5c-12-0.7-23.3-1.4-32.1,1.3c0,0-0.1-0.1-0.1-0.1c0.4-22.6,34.6-41.1,60.2-55.1c9.4-5.1,17.5-9.5,23.6-13.8
		c32.8-23.2,63.8-49.1,92.3-77.2c4.3-4.2,10.8-12,18.3-20.9c9.2-11,26.1-31.2,31.2-33.9c-0.2,0.1-0.7,0.2-1.4,0.2l-0.1-3.9l0-0.3
		c3.7-4.5,7.5-8.9,11.2-13.4c1.6-2-0.8-4.6-2.8-2.8c-2.8,2.4-5.7,4.8-8.5,7.3l-0.1-2.9c-8.5,0-19.5,9.7-41,31.4
		c-3.9,3.9-7.5,7.6-9.2,9l-13,11.1c-10.6,9.1-21.3,18.3-32,27.2c-1.9,1.6-4,3.5-6.3,5.6c-3.6,3.3-7.9,7.2-12.3,10.4
		c-9.4,1.3-20-1.6-31.9-9.3c0.4-1.4-0.7-2.4-1.9-2.5c-1.6-0.2-3.1-0.2-4.7-0.3c-0.1-0.1-0.2-0.1-0.3-0.2
		c-26-14.2-64.5,7.2-85.2,28.7c-24.6,25.4-25.3,51.4-26.1,76.6c-0.3,11.2-0.6,22.8-3,34.9c-3.4,17.4-12.1,30.3-30.2,44.7
		c-22.1,17.6-47.6,33.2-72.3,48.1l-13,7.9c-2.7,1.7-5.2,3.2-7.3,4.6c-4,2.6-6.9,4.3-9.6,5.6c-3.7-1.5-10.3-4.1-22-8.1
		c-16-12.9-30.8-11.1-41.2-6.6c-3.8,0.6-7.2,1.7-10.2,2.7c-3,1-5.6,1.9-8.4,2.2c-9.4,1-18.8-0.2-27.4-3.2c-0.8-0.4-1.7-0.9-2.6-1.4
		c-2.3-1.2-8-4.2-11.6-6.2v-2.8l-7.3-0.7c-1.2-0.1-2.3-0.2-3.4-0.2c-0.7-0.6-1.3-1-2-1.6c-0.8-0.7-2.1-0.7-2.9,0
		c-0.6,0.6-1.1,1-1.7,1.5c-3.6,0.2-6.3,1-8.4,3.2c-1.5,1.5-2.2,3.3-2.5,4.9c-0.2,0.1-0.3,0.2-0.5,0.3c-0.4,0.1-0.8,0.2-1.2,0.3
		c-9.8,2.1-22.5,2-36.9-0.2c-9-1.4-21.7-7.6-35-14.2c-22-10.8-44.7-21.9-62.3-17.9c-1.3-0.5-2.5-0.9-3.6-1.3c0,0,0,0,0,0l-0.1-0.1
		c-3.9-4.2-8.6-6.8-13.9-7.9c-7.7-1.6-16,0.2-25.6,5.8c-1.3-0.3-2.6-0.7-3.6-1.1l-18.2-32.7l0.6-1l2.8-29.5v0
		c17,12.6,32.8,28.6,53.4,32.4c17.5,3.1,5.4-0.9,22.2-1c21.2-0.2,31.1,4.8,49.7,10.8c30.8,10.1,63.3,13.5,95.1,18.9
		c24.9,4.1,55,18,80.2,15.6c29.1-2.8,62.4-22.5,88.9-34.6c14.8-6.7,34.9-12.2,42.8-27.7c-1.8,0,1.6-46.4-0.4-51.1
		c7.7-15.2,24.1-26.2,34.3-39.1c17.5-22.1,25.1-45.6,26.6-73.3c0.2-1.9-2.9-2.9-3.7-1c-4.4,10.2-19.8,26.4-30.7,28.5
		c-13.4-6-26.8-11.8-40.2-17.8c0.5-7.2,0.9-14.3,1.4-21.5c1.5-21.5,2.9-43,4.3-64.5c0.1-2.3-3.6-2.8-4-0.6
		c-3.9,26.9-54.6,125.4-99.4,93.9c-1-0.7-2.7-0.1-3,1.2c-2.7,16.6-55.7-4.9-55.1-3.6c-0.4-0.7-1.4-1.1-2.3-0.9
		c-8.9,2.6-49-18.2-51.2-20.6c-0.4-0.5-1.3-0.8-1.9-0.6c-8.2-3-16.4-6-24.6-8.9c-0.5-0.9-1.9-1.3-2.7-0.7
		c-14.3,9.7-29.6-6.8-42.9-9.7c-9.3-2.1-19.2,2.4-29.7-2c-17.8-7.6-23.1-22.4-36.1-33.7c-12.6-10.9-29.2-20.5-43.4-30.1
		c-16.8-11.4-33.3-25.7-50.9-35.7c-7-4-15.3-5.2-22.1-8.9c-10.5-5.5-14.4-20-22.1-25c-3.4-2.3-8.6-3.6-11.3-5.4
		c-8.9-5.7,5.1,6.5-17-8c-19.6-13-21.4-31.2-23.4-53.9c-1.6-18.1-1.7-36.4-1-54.7c9.3-4.1,10,4.8,20.1,8.3
		c16.2,5.5,11.9-5.7,25.9,7.6c1,0.9,2.5,0.6,3.2-0.4c3-4.8,4.1-9.2,6.2-14.5c4.5-11.1,12-17.2,19.8-25.8c7.2-7.9,11.9-15.3,12.3-26
		l0.1-0.1v-0.5c0.1-2.4-3.1-2.6-3.9-0.6c-2,5.3-16.1,3.6-21.2,6.6c-4.2,2.4-6.4,7.4-8.5,11.4c-6.4,13-15.9,17.3-30.9,17.6
		c-5.5,0.1-10.7,0.2-15.8,0.6c-2.9-2.3-6.8-4.4-7.7-4.6c-1.3-0.3-7.2-0.1-10.6,0.2c-0.1-0.1-0.2-0.1-0.3-0.1
		c-23.6,4.5-38.2-12.7-54.2-27.3c-9.7-8.8-19.9-17.3-27.2-27.9c-0.1,0-0.3-0.1-0.4-0.1c-0.5-0.1-1-0.2-1.5-0.4c0,0,0,0,0,0
		c0,0.3,0,0.6,0,0.9c-0.3,5.2-0.8,10.4-1.6,15.6c0.9,8.1,2.4,15.7,5.5,20.7c3.9,6.5,12.3,11.9,18,16.7c9.9,8.2,21.7,8.5,33.5,13.6
		c8.8,3.9,10.5,6.9,15.8,14.1c1.3,1.8,3.8,4.1,6.2,6.6v0c0,0.1,0.1,0.1,0.1,0.2v0c0,0,0,0,0,0c1.4,2.3,2.7,4.5,4.1,6.8h0
		c-3.1,13.8-6.8,26.8-9,37.2c-2.3,11.4-3.5,18.4-10.7,26.1c-1,1-5.4-0.7-6.7,0.2c-16.6,13-36.7,13.8-57.6,18.4
		c-2.3,0.5-5.4,0.2-7.9,0.7c-2,0.3-3.7,4.2-5.3,4.4c-23.7,12.2-40.2,10.8-49.3-4.4c-0.9-1.4-1.9-2.7-2.8-3.9
		c-10.9-3.1-6.6-6.5-20-6.7c-4.2-0.1-12.5,3-18.2,5.5c-1.1-1-1.9-2-2.2-3.1c-0.2-1.2-1.9-1.9-2.9-1.2c-7.1,4.9-14.2,9.9-21.3,14.8
		c-1.7,1.2-0.7,4.5,1.6,3.7c6.8-2.6,13.6-5.8,20.4-8.3c0.3,0.3,0.6,0.8,0.8,1.5c0.2,1.2,1.4,1.6,2.5,1.5
		c43.3-6.8,54.9,60.5,19.4,70.4c0.6-0.6-6.2-1.5-7.6-1.4c-17.2,1.5-33.5-4.9-39.9-29.1c-0.4-1.5-3-2.1-3.7-0.5
		c-6.2,14.2-7.1,40.3-16.3,52.4c0,0,0,0,0,0c-1.4-2.4-2.8-4.9-4.2-7.5c-16.3-30.8-27.9-80.7,8.5-144.9c6.1-2.3,8.7-9.6,10.2-15.9
		c2.8-11.5,2-18.3,1-26.2c-0.2-2.5-0.6-5.2-0.8-8.5c-0.7-8.7-0.4-9.8,9.7-14.9c10.3-5.2,34.4-17.1,34.4-43.2
		c0-7.2-0.8-12.1-1.3-15.2c-0.2-1.2-0.4-2.7-0.5-2.9c0.1-0.2,0.8-1.3,4.1-4.2c7.9-6.8,12.5-13.7,15-18.2l1-1.9
		c0.7-1.5,1.1-2.6,1.2-3l1.4-4.6l-2.5-2.6c6.6-32.7,11.1-68.7,27.2-97.9c5.7-10.4,11.9-19,16.4-28.2c0.2-0.5,0.5-1,0.7-1.6
		c0.1,0.1,0.2,0.3,0.2,0.5c50.8-96.7,172.6-136.1,270-96.6c-56.9-47.5-130.1-23.8-187.1,0c-31,18.1-62,36.3-78.6,65
		c-1.5-2.4-4.8-2.8-6.8-0.1c-9.2,13-1.5-1.3,0.7-11.7c3.1-13.6,4-28.3,6.4-42.1c3.8-21.3,8.2-42.3,13.3-63.3
		c5-20.5,4.8-23.6,26-38.8c2.8-2,7.2-2.6,9.8-4.9c9.6-8.7,12.5-19.1,20.2-6.4c15.5,25.4-10.5,38.5,25.1,46.1
		c23.5,5.1,49.7,3.2,64.5-17.9c20.9-29.7,13.6-115.6-22.5-132.5c-20.7-9.7-56.3,4.5-74.3,13.4c-4.4,2.2-8.1,4.7-11.3,7.3
		c9.7-19.1,20.8-38.2,36.6-52.6c0.7-0.6,1.5-1.3,2.2-1.9c8.5-5.3,17.9-9.1,28.2-10.6c24.1-3.6,38.2,0.7,51.7,29.2
		c1.9,3.8,7.6,32.8,1.9,29.7c-1.1-0.6-2.6-0.1-3,1.2c-3,11-2.1,6.8-3.5,18.2c-0.2,1.4,1.4,2.3,2.5,2c6.4-1.9,11.6,32.2,13.1,36.1
		c3.9,10.2,9.7,18.7,16.3,27.2c1.1,1.4,3.5,0.2,3.5-1.4c-1.1-34,20-67.2,12.6-100.7c-5.1-22.7-21.3-41.6-42.7-50.3
		c-30.7-12.4-56.3-4.3-77.4,12.9c-18.9,10.2-34.2,27.9-43.7,46.8c-1.1,2.3,2.3,4.3,3.5,2.1c5.2-10.5,12.1-20.4,20.4-28.8
		c-13,15.9-23.5,34.4-31.8,51.4c-0.2,0.4-0.2,0.8-0.2,1.2c-8.3,14-8.7,31.9-8.6,51.6c0-4.6-6.6-5.5-7.9-1.1
		c-5.3,18.2-18.6,29.5-28.2,44.1c0-3,0.1-6.1,0.1-9.6c0.7-29.8-2.8-9.9,7.1-38.4c9.9-28.4-6.4,0-2.8-14.2
		c3.6-14.2,12.1-33.4,22-57.5c9.9-24.1,0-12.1,27-52.6c27-40.5,0,0,19.2-28.4c19.2-28.4-9.9,5.7-24.1,22.7
		c-6.3,7.5,14.7-24.3,40.6-62.3c5.7-7.3,11.6-14.7,17.9-22.4c84.5-104,78.6-114.1,74.9-120.7c-0.2-0.2-0.2-0.4-0.4-0.6
		c4.2-4.7,7.9-10,11.5-15.1c7.2-10.1,13.9-19.6,21.9-21.3c5.1-1,8.7-1.1,12.3-1.2c9.9-0.2,16.9-1.1,30.8-12.2l2.9-2.3
		c17.1-13.7,28.3-22.7,55.1-37.7c8.2-4.6,15.5-9.3,22-13.5c16.9-10.9,29.1-18.8,46.8-18.8c29.9,0,43.5-4.1,59.7-12.2
		c8.2-4.1,10.5-6.3,13-10.1c1-1.5,2.5-3.8,12-10.2c15.8-10.5,70.9-15.6,100.5-18.4c7.2-0.6,13.4-1.2,17.7-1.8
		c29.9-3.6,219.8-13,341.1,33.1c122.4,46.6,193.5,98.6,193.9,98.8c9.8,8.1,28.1,21.6,38.4,20.5c4.4-0.5,7.6-1.5,10.6-2.5
		c3.7-1.3,8-2.7,16.3-3.7c6.4-0.7,10.5-1.8,13.5-2.5c4.7-1.2,6.4-1.6,13.5,0c11.3,2.7,23.4,5,27.8,5.4c2.5,0.6,27.8,7,57.9,19.4
		c81.6,28.8,113.8,117.3,182.4,149.8c30.3,24.4,59.8,49.9,63.3,56.9c2.5,7.6,10.7,16.5,23.9,30.3c13,13.8,27.9,29.3,33.1,42.2
		c4.5,11,13,19.8,22.1,29.1c14.1,14.6,30.1,31,36.1,61.3c4.4,22.5,6.1,38.3,6.4,50c-0.7,0.3-1.5,0.9-1.9,1.9
		c-5.2,12.2-7.3,19.2-18.6,26.2c-9.1,5.7-12.9,10.9-18.1,21.1c-10.2,20-3.4,48.8-10.2,70.3c-0.1,0.2-0.2,0.4-0.4,0.6l-1,1.5
		c-3.1,4.8-6.4,9.8-9.5,15.1c-0.2,0.2-0.3,0.4-0.4,0.6c-0.1,0.1-0.2,0.1-0.2,0.2c-6.8,10.9-14.1,22.6-21.4,34.5
		c-20.4,33-41.5,67.1-58,91C1997.2,1498.5,1956.4,1533.8,1926.8,1556.8z M755.4,1779.2c11.3,7,22.4,12.7,33.4,20.9
		C777.8,1791.9,766.6,1786.2,755.4,1779.2z M847.6,1846.8c-12.9-7.2-24.5-17.5-35.9-27.6C823.2,1829.4,834.7,1839.6,847.6,1846.8
		c10.2,5.7,21.7,8.8,33.2,11.1C869.3,1855.6,857.9,1852.6,847.6,1846.8z M880.6,2060.7c-17.7-5.8-35.1-12-53.3-15.2
		c-0.4-0.1-0.8,0-1.3,0.1c0.4-0.1,0.9-0.1,1.3-0.1C845.4,2048.8,862.9,2054.9,880.6,2060.7z M917.5,1865.2c3.6,0.9,7.1,1.8,10.6,2.8
		C924.6,1867.1,921,1866.1,917.5,1865.2z M998.1,1896.8c3.9,1.7,7.8,3.2,11.7,4.4C1005.9,1900,1002,1898.6,998.1,1896.8z
		 M1040.3,1902.5c7.8-2,15.8-5,22.4-5.4c3.1-0.2,6.1,0.1,9.2,0.6c-3-0.4-6.1-0.8-9.2-0.6C1056.1,1897.5,1048.1,1900.4,1040.3,1902.5
		z M1140,1854.4c-11.4,14.6-26.8,35.7-45.1,42.7c-5.8,2.2-11,2.1-16,1.6c5,0.6,10.1,0.7,16-1.6
		C1113.2,1890.2,1128.6,1869,1140,1854.4c2-2.6,4-5.3,5.8-8C1144,1849.1,1142,1851.8,1140,1854.4z M1146.8,2053
		c-0.9,0.2-1.8,0.4-2.8,0.6l0,0C1145,2053.4,1145.9,2053.2,1146.8,2053z M1160.6,1821.1c-2.3,4.7-4.8,9.2-7.4,13.7
		C1155.8,1830.3,1158.3,1825.8,1160.6,1821.1l0.1-0.3C1160.7,1820.9,1160.7,1821,1160.6,1821.1z M1160.8,1820.6L1160.8,1820.6
		c-0.2,3.7-0.5,7.9-0.8,11.8C1160.3,1828.5,1160.6,1824.3,1160.8,1820.6z M1158.8,1890.7c-5.5-11-2.2-24.8-0.5-37.8
		C1156.7,1865.9,1153.3,1879.7,1158.8,1890.7z M1162.2,2030.8c1.1-1.7,2-3.3,2.7-5C1164.2,2027.4,1163.4,2029.1,1162.2,2030.8
		c0.1,1.8,0,3.4-0.1,4.9C1162.2,2034.2,1162.3,2032.5,1162.2,2030.8z M1218,1894.9c0.6-0.6,1.3-1.1,1.9-1.7c1.9-1.7,3.9-3.2,6-4.1
		c0.2-0.1,5.5-7.6,5.6-7.6v0c-0.2,0-5.5,7.5-5.6,7.6c-2.1,0.9-4,2.4-6,4.1C1219.3,1893.8,1218.6,1894.4,1218,1894.9z M611.1,1598.7
		c-1.3-1.7-2.9-3.3-4.6-5.1C608.2,1595.3,609.8,1597,611.1,1598.7z M543.8,1534.9c8.2,7.7,17,14.8,24.9,21.9c3.6,3.2,7.1,6,10.7,8.3
		c-3.6-2.3-7.1-5.1-10.7-8.3C560.7,1549.7,551.9,1542.6,543.8,1534.9z M543.8,1553.3L543.8,1553.3c-9.1-8.5-12.1-20.4-13.6-32.7
		c0,0,0,0,0,0C531.8,1532.9,534.7,1544.7,543.8,1553.3z M587.6,1576.9c1.8,0.6,3.2,1.1,4.3,1.6
		C590.8,1578,589.4,1577.5,587.6,1576.9c-8.3-2.8-15.3-5.2-21.9-8.4C572.3,1571.6,579.4,1574.1,587.6,1576.9z M601.5,1588
		c0.5,0.6,1,1.2,1.5,1.8C602.5,1589.2,602,1588.6,601.5,1588c-0.8-1.1-1.5-2-2.1-2.8C600,1586,600.6,1586.9,601.5,1588z
		 M426.5,1687.8c10-2.5,20.1-2.3,30.7,4.4C446.6,1685.5,436.5,1685.3,426.5,1687.8z M458.6,1708.4c-1.7-3.2-3.8-6.2-6.5-8.9
		C454.8,1702.2,457,1705.2,458.6,1708.4z M581.8,1114.2c3.2,11.7,8.5,22.8,11.8,34.6c1.9,6.6,8.4,21.4-4.8,6.6
		c-5.1-5.6-6.6-12.5-7.2-20C580.8,1128.3,580.5,1121.1,581.8,1114.2z M616.2,1133.4c-0.5,1.6-0.9,3.3-1.2,5
		C615.3,1136.7,615.7,1135,616.2,1133.4c0.7-2.2,1.7-4.4,2.9-6.4C617.9,1129,616.9,1131.2,616.2,1133.4z M619.4,1152.4
		c0.5,0.3,1,0.6,1.5,0.8C620.4,1153,619.8,1152.8,619.4,1152.4c-3-2.1-4.2-5.2-4.6-8.4C615.1,1147.3,616.4,1150.3,619.4,1152.4z
		 M648,1135.5c1.7-7.6,6.2-18.9,3.7-27c-1.9-6.2-18-16.7-5.2-24.3c2.8-1.6,2.2-4.8,0.4-6.4c0.5-0.4,1.1-0.8,1.6-1.2
		c-0.3-0.2-0.7-0.3-1.1-0.4c0.2-0.1,0.5-0.3,0.7-0.5c0.2-0.1,0.4-0.2,0.6-0.4l1.6-0.6c0.1,0.2,0.1,0.3,0.2,0.5
		c2.4,8.1,3.9,17.1,5.3,23.7c5.5,26.5,12.1,64.2-18.9,80.3c-0.9,0.5-2,0.8-3,1.2c0.2-0.3,0.4-0.5,0.6-0.8
		C642.7,1167.2,645.2,1147.6,648,1135.5z M633.9,1123.4c-0.6-1.2-1.8-2.1-3.4-2.3c-0.5-0.1-1-0.1-1.4-0.1c0.5,0,0.9,0,1.4,0.1
		C632.1,1121.3,633.3,1122.2,633.9,1123.4c0.4,0,0.8,0,1.2,0.1C634.8,1123.4,634.3,1123.4,633.9,1123.4z M631.2,1126.3
		c1.3,4.7,2.7,9.9,1.7,14.7c-0.9,4.1-4.5,10.3-9.5,7.6c-3.9-2.2-1.9-8.6-1-12.1C623.7,1132,625.4,1125.9,631.2,1126.3z"/>
	<path d="M430.5,1768.5c0.1,0,0.2-0.1,0.2-0.1C430.7,1768.4,430.6,1768.4,430.5,1768.5z"/>
	<path d="M595.1,1673.8c-0.5,0.5-1.2,1.1-1.9,1.7c0,0,0,0,0,0C594,1674.9,594.6,1674.3,595.1,1673.8z"/>
	<path d="M450.6,1698.1c-0.1-0.1-0.3-0.2-0.4-0.3C450.3,1697.9,450.4,1698,450.6,1698.1z"/>
	<path d="M1908,997.3c-8.8-2.7-17.5-5.3-26.2-8c-0.5-0.8-1.3-1.4-2.5-1.5c-1.2-0.2-2.4-0.3-3.5-0.3c-0.5-0.1-1-0.2-1.5-0.4
		c-1.5-0.5-2.7-0.1-3.6,0.7c-11.7,1.7-20.8,10.1-32.6,12.8c-0.7-0.3-1.4-0.7-2-1.1c-1.8-0.9-3.5-0.5-4.9,0.6c-1,0.9-2.2,1.8-3.2,2.7
		c-2.8,2.3-0.4,6.8,2.8,6.8c0.5,0,0.9,0,1.4-0.1c-7.6,5.7-13.3,5.7-15.8,15.5c-0.4,1.6,0.2,3.9,1.9,4.6c15.6,7.1,26.7,16.4,4.4,23.3
		c-3.3,1-4,5.6-1,7.4c21.3,12.4-8.4,11.4-6.4,27c1.3,10.6,21.7,10.5,4,13.9c-3.2,0.6-4.1,6-1,7.3c17.8,8.1,33.3,18.1,48,31.2
		c2.7,2.4,8.2,0.1,6.7-3.9c-0.7-2-10.8-25.4-9.8-26.9c1.7-2.5,10.2-1.8,12.1-1.8c3.1-0.1,5-3.4,3.5-6.1
		c-5.9-10.4-14.7-16.5-4.4-23.9c2.2-1.6,2.7-4.3,0.8-6.4c-1.3-3.4-2.6-6.8-3.9-10.1c2.9,0.6,5.9-1.9,4.9-5
		c-1.4-4.9-6.7-11.7,2.1-11.5c3.4,0.1,4.7-3.4,3.5-6c-6.5-14.9,18.7-26.9,27.3-33.3C1911.6,1002.7,1911.5,998.4,1908,997.3z"/>
	<path d="M711.5,1413.5c2.1,2.2,4,4.6,5.5,7.2C709.4,1407.7,709,1407.8,711.5,1413.5z"/>
	<path d="M785.2,1446.5C785.2,1446.5,785.2,1446.5,785.2,1446.5c4.1-1.4,29.5-8.4,29.5-8.4c5.1-0.6,9.1,0.9,14.1-0.2
		c6.5-1.4,12.3-4.8,17.5-8.7c16.2-11.8,29.4-28.7,43.2-43c1.2-1.3,0.3-3.4-1.5-3.5c-13.4-0.6-28.3-1.4-39.7,7.2
		c-9.6,7.2-11.4,18.4-18.8,27c-15.5,18.6-42.1,5.1-53.7,29.8c-7,8-17.8,17.1-21.4,6.4c0-0.1,11.5-12.1,11.8-12.1
		c4.1-6.8,4.1-6.6,4.7-14.7c0.2-1.7-2.3-2.7-3.4-1.4c-11.5,13.4-23.3,40.5-39.1,26.1c-1.5-5.3-13-28.5-17.1-37.5
		c-3.9-3.9-8.5-6.9-13.7-8.4c-13.4-3.7-27.2,1.5-34.3,13.8c-5.6,9.8,0.1,34.9-5.6,41c-0.8,0.9-0.8,2.6,0.4,3.2
		c0.1,0,25.3,53.8-14.8,24.2c-20.1-14.9-15.2-69.3-20.5-92.2c-0.5-2-3.3-1.8-3.9,0c-2.2,6.6-3.8,52.6-20,49.3
		c-11.6-2.3-9.3-38-16.3-45.5c-9.1-9.7-26.3-4.5-32-17.4c5.2-21.3,17.4-34.3,39.4-46.9c7.2-4.2,12.2-6.3,17.2-11.2
		c0,0,0-0.1,0.1-0.1c0.6,1,1.7,1.8,3.2,1.8c2.7,0,3.9-2.1,3.9-4.2c10.2,3.8,20.4,7.2,30.7,10.5c2.2,0.6,3.9-0.4,4.6-2
		c12.6,8.5,23.7,14.2,39.6,13.2c21-1.4,27.7-6.6,51.3-2c18.7,3.6,36.8,9,54.8,15c3.1,1,6.7-3.1,4.6-5.9
		c-14.5-19.2-31.2-33.9-53.3-43.7c-11.4-5.2-23.3-9.2-35.2-13.3c-8.6-3.1-28.6-3.9-36.1-7.3c-3-1.4-7.1,0.9-6,4.6
		c1.5,4.8-20.4-1.1-25.4-0.7c-15.5,1.2-27.5,12.4-37.8,22.8c-1.9,1.9-1.4,4.7,0.6,6h0c-19.2,21.8-47.7,22.3-58.9,53.2
		c-1.2-0.9-3.2-0.4-3.1,1.5c0.2,3.6,0.3,6,0.6,7.9c-2.7,13.3-1.6,27-3.4,40.5c-1.9,14.5-7.4,32,1.3,45.6c4.6,7.2,12.6,7.7,16.9,13.1
		c9.3,11.5,7.3,29.1,14.7,40.3c5.9,8.9,16.5,12.7,28.2,15.3c2.7,0.6,5.6,1.1,8.5,1.6c17,2.9,34.3,4.9,41.3,16.1
		c4.2,1.8,5.1,0.6,7.8-2c0.1,0.2,0.1,0.4,0,0.6c0.5-0.1,1-0.2,1.8-0.4c1.2-0.3,3-2.5,5-5.7c1.2-0.8,2.4-1.4,3.6-2.1
		c12.9-22.7,31.1-47.1,60.3-37.3c1,0.3,2.2-0.4,2.4-1.5C742.1,1473.2,778.5,1478.9,785.2,1446.5z M599.7,1455.7
		c-0.5,0.2-1.2,0.3-1.7,0.1C598.5,1456.1,599.1,1456,599.7,1455.7z M549.4,1387.9C549.4,1387.9,549.4,1387.9,549.4,1387.9
		c-0.3,1.9-0.5,3.9-0.7,5.9C548.9,1391.9,549.1,1389.8,549.4,1387.9z M542.8,1444c-0.4-4.3,0.3-10.9,1.3-17.9
		C543.1,1433.1,542.4,1439.7,542.8,1444c1.8,18.7,9.2,25.1,17.9,30.7C551.9,1469.1,544.6,1462.7,542.8,1444z M578.3,1498.6
		c0.1,0.1,0.1,0.2,0.2,0.2C578.4,1498.8,578.4,1498.7,578.3,1498.6C578.3,1498.6,578.3,1498.6,578.3,1498.6z M577,1486.5
		C577,1486.5,577,1486.5,577,1486.5c0.5,0.5,1.1,2,1.6,3.7C578.1,1488.5,577.5,1487.1,577,1486.5z M578.6,1499
		C578.5,1499,578.5,1499,578.6,1499C578.5,1499,578.5,1499,578.6,1499z M579.4,1499.6C579.5,1499.6,579.5,1499.6,579.4,1499.6
		C579.5,1499.6,579.5,1499.6,579.4,1499.6z M572.6,1403.2c-2.7-3.1-5.6-5.6-8.9-7.5c-3.3-1.9-6.9-3.2-10.9-3.9
		c-1-1.1-1.7-1.9-2.4-2.8c0.7,0.9,1.4,1.7,2.4,2.8c3.9,0.7,7.6,2,10.9,3.9C566.9,1397.6,569.9,1400.1,572.6,1403.2
		c4,1.6,7,3.9,9,6.7C579.6,1407.1,576.6,1404.8,572.6,1403.2z M601.6,1532.8c0.1-1.4,1.9-2.7,3.5-1.4c1.1,1,2.3,2,3.5,3c0,0,0,0,0,0
		C605.9,1534.8,604,1534.6,601.6,1532.8z M617.6,1442.8c-4.8,3.4-9.6,6.7-14.4,10.1C608,1449.5,612.8,1446.1,617.6,1442.8
		c0.9,0.1,1.6-0.6,1.8-1.3C619.2,1442.2,618.5,1442.9,617.6,1442.8z M618.3,1421.9c0.1-7.1,1-13.4,3.7-13.4
		C619.3,1408.5,618.4,1414.8,618.3,1421.9z M626.8,1446c-0.6-3.8-1.4-13.2-2.3-21.7C625.3,1432.8,626.1,1442.2,626.8,1446
		c1.9,11.5,3.7,23,8.5,33.8c1.5,3.4,3.2,6.7,5.1,9.7c-1.9-3.1-3.6-6.4-5.1-9.7C630.5,1469,628.6,1457.5,626.8,1446z M656.9,1548.2
		c-4.6-2.4-7.3-5-9.7-7.4C649.6,1543.2,652.3,1545.8,656.9,1548.2C656.9,1548.2,656.9,1548.2,656.9,1548.2
		C656.9,1548.2,656.9,1548.2,656.9,1548.2z M658.7,1549.3c0.2,0.1,0.3,0.2,0.4,0.3C659,1549.5,658.9,1549.4,658.7,1549.3z
		 M666.6,1450.2c-0.9,1.4-1,3.6-1,5.5C665.6,1453.9,665.7,1451.6,666.6,1450.2c-0.7-4.5,1.1-7.1,5.5-7.7
		C667.7,1443.2,665.9,1445.7,666.6,1450.2z M678.8,1525.2c0.6-1,1.1-2,1.6-2.9C679.9,1523.1,679.4,1524.1,678.8,1525.2z
		 M680.6,1521.9c0.5-0.8,0.9-1.5,1.3-2.1C681.5,1520.4,681.1,1521.1,680.6,1521.9z M683.4,1517.6c-0.2,0.3-0.5,0.7-0.8,1.1
		C682.9,1518.3,683.2,1517.9,683.4,1517.6c0.9-1,1.8-1.9,2.6-2.7C685.2,1515.8,684.3,1516.7,683.4,1517.6z M692,1446.1
		c9.7-5.8,16.8-8.1,21.3-7C708.9,1438,701.8,1440.3,692,1446.1z M723,1499.3c0.3-0.1,0.5-0.3,0.8-0.5
		C723.6,1499,723.3,1499.2,723,1499.3z M744.3,1473.1c-0.9,0.2-2-0.3-2.4-1.1C742.3,1472.8,743.3,1473.4,744.3,1473.1
		c0.4-0.1,0.7-0.2,1.1-0.3C745,1472.9,744.6,1473,744.3,1473.1z M749.4,1471.3c1.6-0.7,3.2-1.5,4.9-2.3
		C752.6,1469.9,750.9,1470.7,749.4,1471.3z M763.7,1466.3c0.9-0.7,1.7-1.4,2.5-2.1C765.4,1465,764.6,1465.6,763.7,1466.3z
		 M768.6,1462.3c1.3-1.1,2.5-2.1,3.7-3C771.2,1460.3,770,1461.3,768.6,1462.3z M782.4,1451.2
		C782.4,1451.1,782.4,1451.1,782.4,1451.2c-1.3,1.1-4.3,3.5-9.5,7.7C778.1,1454.7,781,1452.3,782.4,1451.2z"/>
	<path d="M1182.5,1028.9c0-0.1,0.1-0.2,0.1-0.2c-6.4-3-12.1-5.5-8.5,2.9C1178.3,1029.7,1182.5,1028,1182.5,1028.9z"/>
	<path d="M1136.5,975.6c0.7-0.6,1.4-1.2,2.1-1.9c-0.6,4-1,10-1.4,12.8c-0.2,1.4,0.9,3,2.5,2.4c13.7-4.8,9.9,4.7,15.4,10
		c6,5.8,3.3-2.2,9.1,1.3c2.7,1.7,11.4,14,13.6,17.8c3.4,5.7,10.6-1.9,4.8,10.6c0.8,0.4,1.7,0.7,2.5,1.1c-5.6,1.2-10.6,2.3-10.6,2.6
		c-0.2-0.3-0.2-0.6-0.3-0.8c-4.1,1.7-8.3,3.7-8.7,3.9c-2.1,1-0.6,4.3,1.5,3.6c32-10.7,63.8-12,96.4-3.7c1.9,0.5,3.5-2,2-3.4
		c-6.7-5.7-49.9-25.9-49.7-32.6c0-0.9-0.6-1.8-1.5-1.9c-8.5-2.1-20.8-5.1-21.2-15.1c0-0.8-0.6-1.8-1.5-1.9
		c-22.5-4.4-19.2-34.2-41.6-30.9c-2.6,0.4-1.5,4.3,1.1,3.9c0.3-0.1,0.6-0.1,0.9,0.1c-0.1,0-0.2,0.1-0.2,0.2
		c-3.3,4.5-7.6,8.9-10.3,13.2c-3.9,2.5-3.1,1.9-7.8,6C1131.6,974.5,1134.4,977.2,1136.5,975.6z"/>
	<path d="M1125.7,1149.2c7.2-25.3,26.8-56.3,47.5-73.9c0.6-0.6,0.7-1.8,0.3-2.4c-7.6-12.2,43.1-14.8,47-15.1c2.5-0.2,2.6-4.3,0-4
		c-0.6,0.1-1.2,0.1-1.9,0.2c-0.2-0.1-0.3-0.2-0.6-0.2c-20.4-5.1-39.3-14-60.5-12.1c-1.9,0.2-2.9,2.7-1,3.8c16.6,9.7,8.6,2.5-0.8,9.3
		c-1.8,1.4-2.8,2.9-4,4.5c-5.2,6.8-5.9,10.6-12.9,16.3c-1.6,1.3,0.2,3.9,1.9,3.4c5.6-1.5-8.5,16.7-9.3,17.7c-1,1.1-0.6,3.7,1.4,3.4
		c2.7-0.3-4.3,20-4.9,22c-2.5,8.6-4.4,17.3-6.1,26.2C1121.4,1150.6,1125.1,1151.7,1125.7,1149.2z"/>
	<path d="M1331.9,1131.5C1331.9,1131.4,1331.9,1131.4,1331.9,1131.5c-3.1-7.1-7.3-13.3-13.2-17.4c-0.6-0.5-1.3-0.5-1.8-0.2
		c-0.6-0.6-1.2-1.3-1.9-1.9c-1.9-1.8-4.7,1-2.8,2.9c5.9,5.8,11.2,12,16.1,18.5c4.7,10.5,7.2,23.2,10,32.8c-0.1,0.1-0.1,0.1-0.1,0.2
		c-0.6,2-0.2,4.4,0.8,6.9c-0.8,0.4-1.8,1-2.7,1.7c-0.6,0.4-0.7,1.4-0.6,1.9c1.2,4.4,3.1,8.9,6,11.6c-1.7-1.5-4.3,0.4-3.1,2.4
		c2.8,5.5,31.6,47.1,9.2,31.7c-1.6-1.1-3.9,1.1-2.7,2.7c6.2,8.5,12,16.9,17.1,26.2c5.8,10.6,7.7,26.8,15.9,35.3
		c2.1,2.2,3.3,6.1,6.2,7.5c8.6,4,13.6,1,16.4-6.7c7.6-20.8-21.1-66.1-29.4-84C1359.7,1178.3,1348.3,1153.4,1331.9,1131.5z"/>
	<path d="M1066.7,1248c0.2,4.3,0.7,8.9,1.7,13.8c0.2,1,1.3,1.6,2.3,1.5c0-0.1,0.9-0.6,2.3-1.2c0.6,1.7,1.3,3.2,1.7,3.9
		c10.6,17.1,21.2,34.3,31.8,51.4c12.1,19.7,15.7,39.1,23.2,60.4c7.2,20.4,13.8,47.7,25.5,66.9c1,1.5,3.9,1,3.8-1
		c-4.9-54.4-14-116.2-44.3-162.8c-0.8-1.3-2.7-1.3-3.5,0c-0.8,1.3-1.4,2.2-1.8,2.8c0.6-1.5,1.8-4.7,0.3-6.4
		c-8.1-10-9.7-24.5-21.3-32c-0.6-0.4-1.3-0.3-1.9,0c-0.2-0.1-0.3-0.2-0.5-0.3c-0.6-0.5-1.9-0.3-2.4,0.3
		c-11.4,13.5-11.7-19.1-9.6-27.9c3.7-15.5,27.7-24.4,29.2-39.8c1-9.3-1.8-14.8-11.8-16c-21.4-2.6-28.9,39-31.6,51.4
		C1054.8,1235.6,1058.6,1241,1066.7,1248z"/>
	<path d="M1197.1,1296.7c-3.1-1.3-11.4-5.6-13.7-7.9c-2.9-2.8-2.3-5.1-5.8-7.6c-5-3.4-11.4-2.3-17.3-2.8h-0.1
		c-2.9-1.9-6-3.5-9.2-5.1c-0.6-0.3-1.2-0.2-1.8-0.1c-0.4-0.5-0.8-1-1.1-1.5c-1.4-2.2-4.9-0.2-3.5,2c2.7,4.4,4.6,6.1,9.7,7.6
		c1.3,0.4,2.6,0.5,3.9,0.6c10.4,6.7,18,14.9,25.8,25.7c4.2,5.8,4.3,7.2,10.8,9.8c6.4,2.4,7.8-2.2,17.5,2.3c4.2,1.9,7.3,6,11.8,7.7
		c5.8,2.4,9.3,2.3,15,0c1-0.5,1.2-1.9,0.7-2.8C1231.8,1310.3,1211.3,1302.5,1197.1,1296.7z"/>
	<path d="M821.6,1278.5c-0.6,4-1,8-1.6,11.9c-0.1,1.2,1.4,2.4,2.6,1.9c0.6,3,1.4,6,2.1,8.9c-0.1,1.6,1.8,2.5,3,1.8
		c7.1-4,5.7,3.8,5.6,5.8c0,1.2,1,1.9,2,2c4.4,0.4,9.5-1.5,11.4,3c0.3,0.7,1,1.6,1.9,1.4c2.9-0.3,8.9-2,10.4,2.1
		c0.3,1,1.3,1.7,2.4,1.5c7.5-1.8,13,12.6,14.3,17.1c0.2,1,1,1.4,1.9,1.5c-4.3-0.4,8.4,10.2,10.9,12.3c0,0,0,0.1,0.1,0.2
		c0.1,0,0.1,0,0.1,0.1c2.1,2.6,26.3,28.7,20.5,13.6c0.4,1,1.3,1.7,2.5,1.4c2.1-0.5,10.3,21.5,10.9,23.3c0.2,0.8,1,1.5,1.9,1.4
		c7.6-0.4,14.6,31,14.8,37.1c0,1.6,1.6,2.3,3,1.8c2.1-1,9.7,33.9,9.8,34.5c0.6,2.3,3.9,1.6,4-0.6c3.1-41.5-8.5-97.6-37.8-126.1
		c-3.8-3.6-13.5-7.4-17.4-10.4c-5-3.9-7.8-9.1-12.1-12.6c-18.3-15.1-33.5-19.7-49-41.1c-0.6-1-1.7-1.2-2.7-0.7
		c-0.7,0.2-1.5,0.2-2.2,0.4c0-0.8-0.6-1.9-1.5-1.9c-1.4-4.5-2.8-8.9-4.2-13.4c0.3-0.6,0.5-1.4,0.7-2c0.6-1.5-0.8-2.6-2.1-2.4
		c0-0.1-0.1-0.2-0.1-0.2c-0.4-2.5-4-1.5-3.9,0.8c0,0,0,0,0,0.1c0.2,0.4,0.6,1.5,1.2,3.1c-2.7,6.6-5,13.4-6.8,20.3
		C818.1,1277.9,820,1279.4,821.6,1278.5z"/>
	<path d="M1043.2,1630.5c-9.3-2.7-8.6-25.8-12.9-34.4c-2.2-4.4-15.2-20-15.2-20c-3.2-4.4-29.1-27.1-35.3-34.6
		c-1-0.6-1.9-1.3-2.9-1.9c-0.8-0.3-1.5-0.6-2.3-1c-0.1,0-0.1,0-0.1-0.1c-0.1,0-0.1,0-0.2,0c-0.9-0.1-1.6-0.4-2.5-0.7
		c-4.4,0.4-8.7,0.8-13.1,1.2c-0.8-0.2-1.4,0.2-1.9,0.7c0.1,0,0.3,0,0.4,0.1c3.7,1.4,6.8,3.1,9.4,5.5c0-0.1,0.1-0.2,0-0.4
		c-0.1-0.1-0.2-0.2-0.2-0.2c0-0.2-0.1-0.3-0.2-0.5c0.2,0.2,0.2,0.3,0.3,0.5c0.1,0.1,0.1,0.2,0.1,0.2c0.4,0.5,0.9,1.2,1.3,1.8
		c0.3,0.3,0.6,0.6,0.8,0.9c0,0,0,0,0,0c0.4,0.6,0.8,1.2,1.1,1.8c0,0,0,0,0,0.1c5.4,9.2,10.5,24.1,13.9,32c0.5,1,1.9,1.2,2.7,0.7
		c6-3.3,14.9,18.8,16.3,21.5c1.2,2.3,5.2,8.3,6.3,10.7c5.2,11.8,3.8,21.3,7.6,32.9c0.2,0.8,1,1.6,1.9,1.5c23.7-2.5,7.2,57.2,5,67.8
		c-0.3,1.5,1,2.9,2.5,2.4c3.1-0.9,12.2-5.6,12.5,3.6c0.1,1.9,2.8,2.9,3.8,1c16.7-35.2,10.9-54.1,2-91.8
		C1044.4,1631.2,1043.8,1630.7,1043.2,1630.5z"/>
	<path d="M1253.3,1711.3c-15.9-17.2-36.9-28.4-52.4-45.8c-21.7-24.5-31.9-56.1-41-86.9c-14.6-49.6-29.8-98.4-50-146.1
		c-18.4-43.4-38.5-102-74-134.3c-25.6-23.3-61.8-49.5-96.8-58c-3.2-1.4-6.4-2.6-9.8-3.7c-1.9-0.6-2.9,1.4-2.2,2.8
		c-0.6,1-0.5,2.6,1,2.8c3.2,0.5,6.5,1.1,9.7,1.9c0.1-0.1,0.2,0,0.2,0c59.2,24.4,92.3,78.5,118.7,135.1
		c26.9,57.6,50.9,115.3,64.6,177.5c10.8,48.6,57.3,195.4,131.5,157.8C1254.1,1713.9,1254.1,1712.2,1253.3,1711.3z"/>
	<path d="M1060.5,1473.8c-15.5-31.2-30.3-62.9-50.5-90.6c-11.8-18.1-26.9-33.9-44.4-47.5c-2-1.6-4.9,1.2-2.8,2.8
		c1.3,1,2.6,2,3.8,3.1c-0.3,0.8-0.2,1.8,0.6,2.4c15.4,11.8,28,25.6,39,40.7c3.5,5.2,6.6,10.5,9.4,16.1c10.1,20.3,12,42.3,20.4,62.8
		c5.8,13.8,16.9,24.6,23.7,37.9c6,11.8,9.8,26.2,14.9,38.5c8.9,21.4,18.9,42.2,29.5,62.8c0.6,1.3,2.8,1.3,3.5,0
		c7.4-14.6,3.8-24.5-2.5-39.2C1092.3,1532.9,1075.4,1503.5,1060.5,1473.8z"/>
	<path d="M1347.7,1725.5c-6.1,2-10.5,13.4-15.3,21.5c-3.4,1.9-6.8,3.6-10.2,5.2c-1,0.6-2.2,1.3-3.2,1.9c-1.8-1.1-3.7-3.1-5.8-6
		c-0.9-1.2-2.7-1.4-3.5,0c-3.1,5.2-6.2,14.2-10.8,18.4c-20.4,18.4-6.8,1.3-17.9,3.5c-7.2,1.4-9.9,0.7-15.6,6.7
		c-14.6,15.5-18.4,44.7-20.6,66c-2.3,0.3-4.8,0.3-7.6-0.2c-2.6-0.5-3.6,3.4-1,3.9c3,0.6,5.7,0.6,8.3,0.3c0,0.2-0.1,0.4-0.1,0.6
		c-0.2,2.6,3.8,2.6,4,0c0.1-0.5,0.1-1,0.2-1.5c6.3-1.9,11.4-6.3,16.7-12.4c10.2-12.2,16.2-19.6,30.9-26.9c3.6-1.8,7.7-2.3,10.5-5.4
		c4.6-5.1,2.7-5.6,4-12.6c0.5-2.6-2.3-5.4-1.8-8c1.8-9.3,6.8-17.3,13.6-23c5.5,0.4,17.5-2.9,20.8-8.2c1.4-2.1,1.4-4.7,1.9-7.2v-1.2
		c2.8-3.5,4.7-7.7,5.1-13.8C1350.3,1726.1,1348.8,1725.1,1347.7,1725.5z"/>
	<path d="M1366.8,1605.2c-10.9,2.5-21.6,17-27.9,26.9c-2,1.4-3.9,3.1-5.9,5.2c-4.4,4.7-7.2,10.1-9.7,15.6c-3.6,2.6-8.3,4.6-15.5,6.4
		c-5,1.3-8.9,0.5-13,4.3c-8,7.3-14.5,37.3,4.7,28.5c1.3-0.6,1.3-1.9,0.6-2.7c7.1-2.3,13.3-6.3,18-12.6c4.3-5.7,5.8-12.2,8-18.7
		c0-0.1,0.1-0.1,0.1-0.1c0.9-0.7,1.8-1.5,2.7-2.5c4.3-4.6,6.8-10.5,10.1-15.9c0.8-1.3,1.7-2.8,2.6-4.3c6.2-4.7,13.8-7.7,22.3-8.7
		c8.5-0.9,12.5,0.7,13.8-9.7C1378.8,1608.7,1374.7,1603.4,1366.8,1605.2z"/>
	<path d="M858.6,1453.9c1.3,0.5,2.5,1.1,3.6,1.9c14.3,4.6,32.6,17.6,37.7,19.9c12.1,5.2,24.6,7.6,37.7,8.3c2,0.1,2.7-2.8,1-3.8
		c-11.1-6-16-15.2-24.9-23c-5-4.4-3.3-3.5-8.7-5.3c-7.6-2.5-17.5-1.5-25.4-2.2c-11.9-0.9-23.9-1.9-35.9-2.8c-2.6-0.2-2.6,3.8,0,4
		c1.4,0.1,2.7,0.2,4,0.3c-0.8,0.3-1.5,0.7-2.2,1.2C849.9,1452.4,854.3,1452.5,858.6,1453.9z M904.3,1472.9c0.7,0.4,1.3,0.7,1.9,0.9
		C905.6,1473.6,904.9,1473.3,904.3,1472.9z M929.1,1479.5c-0.2-0.1-0.4-0.2-0.5-0.3C928.7,1479.3,928.9,1479.4,929.1,1479.5
		L929.1,1479.5z M915.3,1466.3c3.6,3.5,7.9,7.3,11.1,11.2c0.5,0.5,1,0.9,1.5,1.3c-0.5-0.3-1-0.8-1.5-1.3
		C923.2,1473.7,919,1469.9,915.3,1466.3c-5.9-5.9-11-8.7-16.4-10.2C904.4,1457.6,909.4,1460.5,915.3,1466.3z M898.9,1469.9
		c-2.6-1.5-5.6-3.3-8.8-5.2C893.3,1466.6,896.3,1468.3,898.9,1469.9z"/>
	<path d="M989,1738.5c-9.7,23-32.6,31.5-55.1,33.2c-8.6,0.6-17.3,0.2-25.8-1.4c-3.7-2.3-7.3-4.7-10.7-7.3
		c-4.8-1.9-13.6,0.1-20.9,0.2c-2.3-4.7-4.6-8.8-11.1-11.5c-2.3-1-4.4,2.5-2,3.5c4.3,1.8,7.3,4.6,9.9,8c-4-0.2-7.2-1.5-8.3-4.9
		c-0.7-2.5-4.7-1.4-3.9,1c2.2,6.8,1.5,8,9.5,9.9c2.3,0.5,4.3-0.2,6.2-1c4.8,7.6,9.1,16.1,19.1,19.9c16.6,6.4,44.8,15.9,62.5,10.9
		c35.2-9.7,51.4-26.4,34.4-61C991.8,1736.2,989.5,1737,989,1738.5z"/>
	<path d="M869.1,1688.9c0-1.4-1.8-2.6-3-1.7c-9.7,6.6-17.8,9.7-28.3,14c-3.9,1.5-16.2,11.3-19.6,11.2c-8.7-0.2-7.8-6-11.8-12.7
		c-2.9-4.9-5.9-10.1-11.4-12.6c-4.6-2.1-26.3-0.4-26.6-6c-0.1-2.6-4.1-2.6-4,0c0.4,9.7,4.4,11.5,13,13.4c0.6,0.2,1.2-0.1,1.9-0.4
		c16.9,15.1,30.5,31.4,30.4,56.3c0,4.3-0.4,8.4-0.8,12.4c0.1-0.3,0.1-0.7,0.2-1c1-3.1,2.6-6.3,4.4-9.4c0-0.7,0.1-1.5,0.1-2.2
		c2.1-12.6,7.2-23.3,18.7-26.6c1.3-0.4,3.3,3.3,5,2.8c1.5-0.5,3.4-2.2,4.7-2.3c3.1-0.5,7.5-2.7,10.6-3.1c1.4-0.2,3,2,4.3,1.7
		c1.9-0.5,4.1-0.4,5.8-1.4C872,1716.2,869,1696,869.1,1688.9z M811.9,1717.6L811.9,1717.6c-1-0.4-1.7-1.2-2.4-2
		C810.2,1716.4,810.9,1717.1,811.9,1717.6z M784,1692.9C784,1692.9,784,1692.9,784,1692.9c6.1,1.1,12.5,4.8,17.2,9.1
		C796.5,1697.7,790.1,1694,784,1692.9z M804.2,1716.1c3.9,6.2,6.9,12.9,8.4,20.5C811.1,1729,808.1,1722.3,804.2,1716.1z
		 M820.3,1715.9c-1.8,0.7-3.1,1.6-4.6,2C817.2,1717.5,818.5,1716.6,820.3,1715.9c1.5-1.1,3.1-2.1,4.7-3.1
		C823.5,1713.8,821.8,1714.7,820.3,1715.9z M841.1,1716.7C841.1,1716.7,841.1,1716.8,841.1,1716.7
		C841.1,1716.8,841.1,1716.7,841.1,1716.7z M841.2,1716.8C841.2,1716.8,841.2,1716.9,841.2,1716.8
		C841.2,1716.9,841.2,1716.8,841.2,1716.8z M841.5,1717C841.6,1717,841.6,1717,841.5,1717C841.6,1717,841.6,1717,841.5,1717z
		 M841.3,1716.9C841.3,1716.9,841.3,1716.9,841.3,1716.9C841.3,1716.9,841.3,1716.9,841.3,1716.9z M841.4,1716.9
		C841.4,1716.9,841.5,1717,841.4,1716.9C841.5,1717,841.4,1716.9,841.4,1716.9z M841.1,1716.7c0,0,0.1-0.1,0.1-0.1
		C841.2,1716.6,841.2,1716.6,841.1,1716.7z M841.3,1716.5c0.1-0.1,0.2-0.1,0.3-0.2C841.4,1716.4,841.3,1716.5,841.3,1716.5z
		 M835.1,1706.6c3.8-1.8,7.9-2.8,12.2-3.2C842.9,1703.8,838.9,1704.8,835.1,1706.6z M856.6,1701.8c0,0-2.3,1.2-2.8,1.5
		C854.2,1703,856.6,1701.8,856.6,1701.8c0.4-0.1,0.8-0.5,1.4-1.1C857.4,1701.3,856.9,1701.6,856.6,1701.8z M866.4,1699.6
		c0.1-1.7-1-2.9-4.5-3C865.4,1696.7,866.6,1697.9,866.4,1699.6z"/>
	<path d="M787.4,1551.4c1,8.6,2.7,18.3,7.8,20.4c1.6,0.7,5-1.3,5.9-0.9c7.1,3.1,4.9,9.4,6.8,17.2c2.2,9,4.1,10.9,12.1,13.1
		c0.5,0,4.7-1.9,4.7-2c0.9,0.6,3.2,23.8,4,27.3c0.4,1.9,3.5,2,3.9,0c1.4-8.2,10.1-32.4,3.8-40.1c-3.5-4.1-5.8-1-9.1-2.9
		c-9.3-5.4-8.6-19.3-15.8-27.6c-4.6-5.3-11.9-7.9-18.4-11.3c-0.6-0.2-1.3-0.4-1.9-0.7c-1.6-0.7-3.1-1.7-4.6-2.6
		c0.8,2.9,1.5,5.9,1.2,9C787.6,1550.7,787.4,1551.1,787.4,1551.4z M809.2,1567.4c0-0.6-0.2-1-0.6-1.4
		C808.9,1566.3,809.1,1566.8,809.2,1567.4c0.3,1.9,0.5,3.8,0.7,5.7C809.6,1571.2,809.4,1569.2,809.2,1567.4z M825.8,1594.3
		c0.3,0.2,0.5,0.6,0.6,1c0.5,3,1,6.1,1.6,9.1c-0.6-3-1.1-6.1-1.6-9.1C826.3,1594.8,826.1,1594.5,825.8,1594.3z M830.2,1615.3
		C830.2,1615.3,830.2,1615.3,830.2,1615.3c-0.8-3.2-1.4-6.5-2.1-9.8C828.8,1608.7,829.5,1612,830.2,1615.3z M824.6,1588.9
		L824.6,1588.9c-2.6-2.4-4.6-5.1-6.2-7.9C820.1,1583.8,822,1586.5,824.6,1588.9z M811,1566c-2.7-5.4-6.1-10.5-12.4-14.2
		c-1-0.6-2-1.1-3-1.7c1,0.5,2,1.1,3,1.7C804.9,1555.5,808.3,1560.6,811,1566z"/>
	<path d="M515.9,1606.9c-22.4,2.1-51.5,0.1-70.9,13.3c-0.8,0.6-1.4,1.8-0.7,2.7c3,4.3,4,3.5,8.9,5.1c3.7,1.2,7.6,3.1,11.6,4.9
		c-1.1,1.7-0.9,2.8,5.5,2.3c2.7,1,5.3,1.9,8,2.3c21.5,3.1,37.1-19.6,55.1-26.6c2.1-0.8,1.9-3.9-0.5-3.9h-0.6
		c-5.4-0.3-9.8,0.2-14.3,1.6C517.7,1607.5,517,1606.8,515.9,1606.9z"/>
	<path d="M1309.5,1163.2c-4.8-8.8-9.4-19-17.2-25.8c-0.8-0.7-3.1-1.1-3.6-1.8c-1-0.2-1.9-0.2-2.9,0c-0.3-2.6-1.3-4.9-2.9-7
		c-1.1-2.1-3.1-2.3-4.8-1.5c-3.5-2.9-7-5.3-11.4-7.6c-3.7-1.9-7.3,1.9-5.6,5.6c0.7,1.5,1.5,3.1,2.3,4.6c0,0,0,0,0,0
		c0,0.5,0.1,1,0.2,1.4c0,0,0,0,0,0c-13.3-8.5-29.2-12.9-48.5-10.9c-12.2,1.2-22.7,4.1-32,8.1l-1.1-0.3c0,0-37.4,4.7-54.9,53
		s-13.7,46.4-13.7,46.4s32.8,42.9,60.1,45.7c2.8,0.3,4.7,0.2,5.9-0.1c11.6,4.2,24.8,5.9,40.4,4.5c11.1-1,22.5-2.6,33.6-5h0.1
		c10.5,0.8,21.7-3.7,30.4-9.7c18.6-8.4,34.5-21.1,44.4-40.7c0.9-1.7,0.6-3.4-0.5-4.5C1333.2,1201.2,1316.8,1176.6,1309.5,1163.2z
		 M1235.3,1185.5c0.5-0.6,0.8-1.5,0.8-2.3c0.1,0.1,0.3,0.2,0.4,0.3c0.7-0.6,1.9-0.7,2.4,0.3c0,0,0,0,0,0c1.4,0.7,1.8,2.2,2.1,3.6
		c0.4,1.9,1,3.8,0.9,5.8c-0.1,3.6-2,5.5-5.6,4.6c-2.9-0.7-6.8-2.9-7.4-6c-0.6-3.3,2.9-5.4,5.5-6.3
		C1234.8,1185.4,1235.1,1185.4,1235.3,1185.5z M1217.7,1153.5c0.1-0.9,1.1-1.8,2.3-1.3c2.2,1.1,3.8,4.6,5.2,6.5
		c1.2,1.6,2.4,3.3,3.7,4.8c0.5,0.6,1.1,1.1,1.6,1.6c0.6,0.6,1,0.2,0.5,0.7c1.4-1.3,3.5,0.8,2.1,2.1c-0.3,0.3-0.6,0.4-0.8,0.6
		c0,0,0,0,0,0c0,0,0,0,0,0c-1.5,0.7-3.1-0.1-4.6-1.7c-0.1,0-0.2-0.1-0.3-0.1c-4.3-2-8.2-4.7-11.8-7.7c-0.8-0.6-1.6-1-2.4-1
		C1214.5,1156.2,1216,1154.8,1217.7,1153.5z M1147.2,1155.7c1.1-2.5,2.7-4.1,4.5-5.1C1150.1,1152.3,1148.6,1153.9,1147.2,1155.7
		C1147.1,1155.7,1147.1,1155.7,1147.2,1155.7z M1127.3,1213c-0.4-0.6-0.9-1-1.5-1.3c9.9-24.9,20.8-47.5,39.1-62.9
		c4.8,25.4-9.6,50.9,1.1,76.1c7.4,17.4,22.1,27.7,39,34.9c7.2,3.1,14.7,6.2,22.5,8.2C1179.9,1273.3,1152.9,1252.9,1127.3,1213z
		 M1179.1,1227.9c2.6,4.1,5.6,7.8,9,11.2c-0.3-0.3-0.7-0.6-1-0.9c0-0.1-0.1-0.1-0.2-0.2c-2.9-2.8-5.5-6-7.4-9.6
		c-0.2-0.2-0.2-0.3-0.3-0.5C1179.1,1228,1179.1,1227.9,1179.1,1227.9z M1236.7,1260.8C1236.6,1260.8,1236.6,1260.8,1236.7,1260.8
		c-1-0.1-1.8-0.2-2.7-0.4c0,0-0.1,0-0.1,0c0.8,0,1.5,0,2.3,0C1236.3,1260.6,1236.5,1260.7,1236.7,1260.8
		C1236.7,1260.8,1236.7,1260.8,1236.7,1260.8z M1225.5,1251.7c-27.3-6-45.4-29.2-50.3-55.6c-0.2-1-0.7-1.7-1.3-2.1
		c0.4-3.7,0.8-7.4,1.4-11.1c4.5-10.4,15.2-18.4,26.3-23.7c-14.2,21.2-13.2,50.7,10,67.6c12.4,9,26.3,9.4,39.6,2.5
		c7.4-3.9,15.5-9.8,21.5-16c0.1-0.1,0.2-0.2,0.3-0.3c1.5-1.9,8-9.4,7-9.3c8.5-1.7,11.7,12.1,12.6,17.2c0.1,0.6,0.3,1,0.6,1.4
		c0,0,0,0,0,0C1270.4,1236.2,1257.5,1258.7,1225.5,1251.7z"/>
</g>
</svg>
